<?xml version="1.0" standalone="no"?>
<!DOCTYPE svg PUBLIC "-//W3C//DTD SVG 20010904//EN"
 "http://www.w3.org/TR/2001/REC-SVG-20010904/DTD/svg10.dtd">
<svg version="1.0" xmlns="http://www.w3.org/2000/svg"
 width="424.000000pt" height="539.000000pt" viewBox="0 0 424.000000 539.000000"
 preserveAspectRatio="xMidYMid meet">

<g transform="translate(0.000000,539.000000) scale(0.100000,-0.100000)"
fill="#000000" stroke="none">
<path d="M2210 5323 c-8 -3 -41 -24 -74 -46 -32 -21 -105 -56 -163 -77 -128
-47 -143 -59 -143 -118 0 -40 -4 -48 -45 -84 -55 -48 -64 -85 -11 -44 39 29
66 34 66 11 0 -15 -85 -74 -107 -75 -20 0 -51 -83 -64 -172 -7 -49 -16 -88
-20 -88 -4 0 -9 51 -11 113 -5 143 -29 201 -121 291 -110 107 -238 150 -375
126 -118 -20 -148 -38 -294 -172 -165 -152 -254 -210 -398 -264 -69 -26 -87
-28 -222 -28 -137 -1 -192 -9 -137 -20 224 -45 322 -47 436 -11 94 30 176 83
307 201 167 151 182 163 234 189 82 41 150 51 227 32 122 -30 249 -147 161
-147 -36 0 -100 -25 -174 -69 -71 -43 -170 -79 -317 -116 l-90 -22 2 -46 c3
-86 112 -256 228 -357 90 -78 229 -130 347 -130 l70 0 -8 -32 c-10 -46 -8 -67
10 -87 21 -23 20 -27 -10 -59 -42 -44 -99 -178 -143 -333 -61 -217 -71 -279
-71 -463 0 -174 17 -274 65 -381 60 -134 75 -184 85 -291 11 -120 31 -204 90
-369 21 -60 43 -137 50 -170 6 -33 15 -76 20 -95 5 -19 11 -54 15 -77 4 -24
12 -46 18 -50 6 -4 8 -1 5 8 -3 8 -13 57 -23 109 -28 150 -52 251 -73 306 -41
107 -55 190 -49 287 4 51 7 103 7 117 l1 25 20 -25 c32 -38 63 -105 99 -215
23 -71 48 -122 85 -175 151 -216 275 -498 300 -682 5 -37 3 -48 -8 -48 -27 0
-105 -61 -121 -94 -23 -49 -20 -123 7 -170 34 -60 69 -81 132 -80 119 1 202
116 165 230 -16 49 -35 71 -85 96 -22 11 -41 21 -42 22 -10 9 23 229 51 343
46 187 64 239 95 276 30 37 11 25 -56 -35 -79 -71 -85 -50 -22 83 46 95 59
113 152 204 106 104 106 108 0 18 -68 -59 -90 -57 -40 3 18 21 50 66 72 98 51
76 113 122 203 150 21 7 22 5 23 -86 0 -51 6 -131 13 -178 l12 -85 18 52 c9
29 26 94 36 144 18 89 30 121 30 83 0 -86 -28 -218 -80 -374 -77 -234 -77
-234 -35 -350 29 -80 34 -90 35 -60 1 31 22 141 50 265 5 22 20 79 34 127 14
48 34 126 45 175 11 48 29 108 40 133 l21 45 -6 -40 c-4 -22 -33 -146 -65
-275 -40 -155 -70 -305 -89 -440 -32 -224 -47 -283 -91 -370 -31 -62 -46 -125
-41 -177 l3 -33 102 -1 c56 0 120 -3 142 -7 82 -15 8 -26 -215 -33 -124 -4
-226 -8 -227 -8 -2 -1 -3 -23 -3 -51 l0 -50 355 0 355 0 2 35 c0 19 1 41 2 48
1 6 -14 14 -34 17 l-35 5 -5 100 c-5 87 -9 107 -36 155 -37 68 -64 134 -70
174 -16 117 -19 159 -18 311 1 185 4 221 35 340 11 44 22 91 25 105 12 55 18
52 24 -10 4 -36 16 -114 28 -175 12 -60 31 -162 43 -225 31 -175 40 -210 51
-210 10 0 3 163 -7 180 -5 8 -29 167 -40 267 -3 26 -10 72 -15 102 -6 30 -10
56 -10 58 0 2 28 3 63 1 l62 -3 3 -85 c1 -47 8 -179 15 -295 8 -115 12 -256 9
-313 l-4 -102 36 0 c20 0 39 6 41 13 4 11 25 167 41 300 5 48 11 216 13 395
l1 92 34 0 c41 0 88 -37 167 -130 129 -153 134 -165 200 -410 21 -78 33 -148
36 -216 l5 -100 -45 -115 c-25 -63 -48 -135 -52 -161 l-6 -47 148 -3 c222 -4
189 -22 -52 -28 -211 -5 -237 -2 -321 36 -29 13 -59 24 -66 24 -24 0 -38 23
-38 59 0 24 -3 32 -10 25 -7 -7 -10 -51 -8 -110 l3 -99 206 -5 c113 -3 282 -4
374 -2 l168 3 -6 127 c-5 120 -10 154 -42 297 -7 33 -17 87 -20 120 -8 69 -9
76 -30 210 -9 55 -20 127 -25 160 -32 223 -50 308 -104 495 l-37 125 6 200 c8
258 22 330 90 470 52 108 85 192 85 219 0 8 9 16 20 19 16 4 20 14 20 50 l0
46 -247 1 c-225 0 -391 9 -528 26 -62 8 -69 12 -54 31 11 12 7 14 -27 11 -32
-2 -39 0 -41 17 -2 11 -5 34 -8 50 -2 17 -7 47 -10 67 -7 49 -58 193 -100 282
-18 39 -31 74 -29 77 2 3 33 9 69 13 207 21 385 134 489 311 59 102 60 128 4
156 -111 57 -286 98 -443 105 -133 5 -114 -10 25 -20 52 -4 118 -12 145 -17
77 -15 285 -92 285 -106 0 -27 -90 -121 -163 -170 -149 -99 -136 -97 -652
-100 -247 -1 -495 -6 -550 -10 -106 -9 -236 0 -263 18 -13 7 -1 9 46 5 35 -2
61 -2 59 0 -3 3 -49 16 -103 30 -186 47 -402 124 -463 165 -65 43 -187 156
-178 165 3 3 25 -6 49 -20 24 -14 78 -33 119 -42 41 -9 100 -30 131 -45 32
-16 94 -42 139 -59 44 -16 102 -41 127 -56 98 -55 192 -75 262 -55 22 7 20 8
-18 14 -54 9 -122 36 -122 49 0 11 335 1 455 -14 76 -10 213 -13 300 -7 22 2
104 2 183 1 140 -2 170 -10 120 -33 -24 -10 -27 -10 86 8 34 5 38 4 33 -10
-14 -37 83 -15 216 48 43 20 77 38 75 41 -2 2 -44 -8 -93 -21 -49 -14 -91 -22
-94 -20 -2 3 8 18 22 33 36 37 34 48 -3 20 -22 -16 -33 -19 -41 -11 -8 8 -5
14 10 22 12 7 21 16 21 22 0 6 -10 3 -22 -5 -25 -18 -58 -21 -58 -6 0 6 6 10
13 11 6 0 3 4 -8 9 -17 7 -15 9 12 9 17 1 35 6 38 11 4 6 -21 10 -67 10 -66 1
-71 2 -54 15 11 8 29 15 41 15 12 0 30 7 41 16 13 11 14 14 3 11 -83 -26 -141
-39 -146 -33 -11 10 12 28 49 36 30 7 27 8 -22 9 -30 0 -83 -6 -118 -14 -35
-8 -68 -13 -73 -9 -12 7 0 81 20 122 19 38 148 153 201 179 51 26 217 25 285
-1 67 -25 155 -86 235 -161 79 -74 140 -111 233 -142 137 -45 263 -51 420 -21
82 15 54 28 -63 28 -112 0 -199 13 -284 42 -108 37 -158 71 -335 230 -121 108
-244 156 -369 143 -103 -11 -199 -62 -328 -175 -34 -30 -67 -50 -81 -50 -12 0
-23 1 -23 3 -1 1 -3 20 -6 42 -15 112 -49 164 -134 208 -34 18 -53 37 -78 83
-40 70 -83 117 -128 139 -32 15 -95 19 -124 8z m129 -88 c33 -29 54 -82 76
-198 23 -119 30 -129 135 -197 59 -38 90 -67 90 -86 0 -8 -4 -12 -10 -9 -15 9
-12 -7 5 -29 17 -23 21 -166 5 -166 -17 0 -37 44 -55 120 -9 41 -19 82 -21 91
-2 9 -26 30 -53 47 -64 42 -100 101 -146 240 -40 121 -56 142 -112 142 -26 0
-39 -8 -65 -41 -23 -29 -60 -55 -120 -85 -49 -24 -88 -47 -88 -50 0 -11 73 7
112 27 21 11 38 15 38 10 0 -14 -78 -66 -122 -82 -42 -15 -48 -24 -18 -32 29
-7 25 -23 -9 -35 -32 -11 -50 -40 -95 -151 -39 -95 -46 -101 -133 -101 -62 0
-73 3 -73 17 0 9 8 25 18 36 9 11 12 17 5 14 -25 -15 -23 14 4 39 15 14 21 24
13 23 -8 -2 -16 -1 -17 4 -13 36 28 85 105 128 31 18 63 39 70 47 7 9 12 44
12 82 0 75 -1 74 100 105 30 9 91 35 135 57 130 66 167 72 214 33z m-155 -691
c25 -4 46 -11 46 -17 0 -12 -110 -1 -124 13 -12 12 11 13 78 4z m-417 -371 c3
-7 -2 -25 -12 -39 -9 -14 -19 -50 -22 -80 -4 -34 -10 -53 -17 -51 -6 2 -23 33
-37 68 -40 99 -58 137 -68 143 -5 4 1 -16 14 -43 14 -27 36 -91 50 -142 35
-122 42 -138 110 -243 80 -124 86 -144 95 -283 4 -80 12 -128 21 -139 12 -15
14 -15 20 7 13 45 9 203 -6 259 -23 87 -41 268 -28 281 13 13 39 -61 50 -138
6 -47 18 -48 28 -3 9 41 22 46 51 19 31 -29 57 -117 52 -175 -2 -24 -1 -44 2
-44 3 0 14 -24 25 -52 11 -29 21 -56 23 -60 2 -5 -1 -8 -7 -8 -6 0 -19 17 -30
38 -11 20 -20 31 -21 24 0 -21 28 -82 39 -82 6 0 15 -10 22 -22 9 -17 9 -20
-2 -16 -8 3 -25 8 -39 12 -19 5 -18 2 8 -11 17 -9 32 -20 32 -25 0 -10 -3 -10
-36 2 -23 9 -25 9 -15 -4 7 -8 26 -18 42 -21 38 -8 38 -25 0 -25 -49 0 -43
-16 13 -33 97 -31 168 -20 186 29 11 27 34 34 26 6 -10 -29 12 -135 39 -185
14 -27 25 -53 25 -57 0 -5 -17 -10 -37 -12 l-38 -3 -6 -62 c-6 -64 -45 -157
-78 -187 -17 -16 -29 -16 -192 -1 -275 25 -259 20 -281 85 -45 128 -8 330 60
330 31 0 33 -35 4 -98 -21 -45 -26 -73 -26 -134 -1 -53 3 -81 13 -90 11 -11
13 -4 7 45 -6 56 -6 57 16 52 30 -7 79 7 89 26 4 7 10 26 14 42 7 37 22 34 30
-5 16 -73 59 -79 117 -16 l40 43 34 -38 c41 -44 40 -61 -4 -65 -36 -4 -39 -16
-20 -68 9 -27 16 -31 41 -30 25 1 32 -4 37 -23 4 -19 13 1 38 85 42 142 41
157 -6 204 -35 36 -42 38 -117 44 -155 13 -277 26 -286 32 -5 3 -9 53 -10 112
0 74 -6 124 -18 162 l-18 55 1 -158 c1 -146 -1 -160 -18 -173 -33 -23 -49 -18
-42 14 17 73 18 179 2 242 -38 152 -75 284 -76 265 0 -17 15 -152 35 -310 4
-30 3 -35 -4 -19 -10 22 -47 228 -57 312 -3 26 -8 50 -10 54 -3 4 -9 72 -14
150 -5 79 -17 167 -25 196 -15 49 -14 148 2 174 5 9 163 -120 170 -139z m1015
-71 c24 -40 53 -164 85 -362 23 -150 28 -204 27 -375 0 -190 -1 -204 -27 -290
-28 -88 -95 -230 -105 -221 -3 3 -1 11 5 18 13 18 61 146 80 211 28 100 27
414 -2 577 -2 14 -18 108 -35 209 -20 122 -38 196 -50 217 -23 37 -24 44 -7
44 7 0 20 -12 29 -28z m-1256 -199 c-43 -131 -79 -305 -107 -508 -27 -196 -22
-367 15 -505 30 -111 30 -110 13 -110 -18 0 -72 104 -93 180 -29 101 -26 397
5 545 34 165 76 313 110 383 17 34 31 64 31 67 0 2 10 20 21 40 40 67 42 23 5
-92z m1228 73 c-17 -34 -17 -41 -1 -128 53 -299 71 -490 58 -625 -10 -98 -52
-290 -71 -323 -15 -24 -12 -5 20 150 32 157 40 316 20 421 -6 30 -17 110 -26
179 -8 69 -21 158 -29 198 -16 74 -13 105 12 156 22 44 38 18 17 -28z m-562
-34 c-14 -55 -14 -62 8 -155 17 -73 20 -101 12 -109 -8 -8 -12 -8 -16 3 -51
160 -55 207 -23 282 24 57 37 44 19 -21z m387 -115 c-14 -12 -34 -26 -43 -32
-9 -6 -23 -39 -32 -80 -23 -99 -66 -248 -76 -259 -18 -22 -17 5 2 53 11 29 27
92 34 141 8 49 20 100 27 112 18 36 93 104 104 95 6 -5 0 -17 -16 -30z m-134
-189 c-11 -68 -36 -149 -44 -143 -11 6 18 149 36 178 11 18 14 4 8 -35z m176
-204 c-10 -84 -16 -103 -26 -92 -6 5 13 165 21 188 13 32 15 -12 5 -96z m406
44 c-3 -8 -6 -5 -6 6 -1 11 2 17 5 13 3 -3 4 -12 1 -19z m296 -137 c123 -60
117 -37 117 -442 l0 -339 -232 2 -233 3 -1 100 c0 102 1 113 30 245 23 105 44
249 51 360 4 52 8 98 11 101 2 3 42 7 89 8 82 2 90 0 168 -38z m-1443 -265 c0
-16 -18 -31 -27 -22 -8 8 5 36 17 36 5 0 10 -6 10 -14z m440 -528 c-16 -36
-47 -88 -67 -116 -21 -28 -60 -87 -88 -131 -45 -73 -65 -95 -65 -73 0 4 20 39
44 77 75 119 142 228 171 280 39 68 43 43 5 -37z m-572 -38 c23 -25 56 -80 48
-80 -6 0 -111 132 -124 157 -22 41 -12 37 20 -8 18 -24 43 -55 56 -69z m-7 53
c13 -16 12 -17 -3 -4 -10 7 -18 15 -18 17 0 8 8 3 21 -13z m60 -75 c14 -24 56
-92 93 -151 36 -59 66 -110 66 -112 0 -3 -6 -5 -14 -5 -17 0 -33 25 -119 188
-63 119 -78 165 -26 80z"/>
<path d="M2080 5122 c-31 -15 -69 -32 -85 -39 l-30 -12 30 6 c46 9 155 54 155
64 0 13 -9 11 -70 -19z"/>
<path d="M1750 4829 c-22 -18 -22 -19 -3 -10 12 6 25 16 28 21 9 15 3 12 -25
-11z"/>
<path d="M1937 2939 c-5 -17 -11 -20 -31 -15 -33 8 -36 -18 -4 -35 61 -33 219
-52 233 -29 3 6 -5 10 -19 10 -14 0 -45 18 -77 45 -58 49 -93 58 -102 24z"/>
<path d="M3213 3145 c0 -77 2 -124 6 -105 3 19 3 82 0 140 l-5 105 -1 -140z"/>
<path d="M3303 3125 c0 -33 2 -45 4 -27 2 18 2 45 0 60 -2 15 -4 0 -4 -33z"/>
<path d="M3204 2715 c0 -49 1 -71 3 -48 2 23 2 64 0 90 -2 26 -3 8 -3 -42z"/>
<path d="M3510 4683 c45 -53 103 -83 159 -82 l46 0 -36 14 c-52 19 -120 55
-155 81 -45 35 -51 29 -14 -13z"/>
<path d="M536 4259 c-26 -29 -44 -54 -41 -58 4 -3 11 2 16 11 5 9 15 23 22 30
46 52 60 68 55 68 -4 0 -27 -23 -52 -51z"/>
<path d="M636 4198 c-97 -97 -165 -197 -218 -320 -40 -92 -85 -234 -77 -242 3
-4 267 -9 303 -7 6 1 -2 14 -17 29 -64 67 -62 175 4 317 25 54 86 115 121 122
l28 5 -26 31 c-24 28 -26 37 -21 89 3 34 1 58 -4 58 -6 0 -47 -37 -93 -82z"/>
<path d="M3355 4233 c-15 -21 -42 -50 -59 -65 l-31 -27 41 6 c39 5 41 4 114
-73 94 -101 130 -175 137 -282 6 -80 -5 -119 -45 -164 -14 -17 -7 -18 136 -18
126 0 152 2 152 14 0 8 -4 17 -9 21 -5 3 -31 60 -57 128 -75 195 -143 317
-219 393 -15 15 -125 104 -129 104 -2 0 -16 -17 -31 -37z"/>
<path d="M3280 4240 c0 -6 7 -10 15 -10 8 0 15 2 15 4 0 2 -7 6 -15 10 -8 3
-15 1 -15 -4z"/>
<path d="M3561 4228 c16 -30 67 -89 93 -108 16 -11 14 -4 -9 26 -66 90 -111
133 -84 82z"/>
<path d="M2929 4045 c11 -27 36 -88 55 -135 20 -47 36 -90 36 -97 0 -23 41
-123 50 -123 15 0 -18 97 -83 245 -59 136 -99 211 -58 110z"/>
<path d="M317 3602 l-28 -3 3 -97 c4 -89 8 -105 47 -192 57 -126 80 -201 88
-283 5 -59 8 -67 24 -62 17 6 17 -7 13 -232 -3 -131 -9 -422 -13 -648 -9 -465
-8 -456 -98 -610 -46 -78 -47 -83 -51 -177 l-4 -98 235 0 235 0 7 50 c9 66 1
99 -48 200 l-42 84 -1 441 c-1 396 4 503 20 455 2 -8 45 -136 95 -285 95 -284
145 -464 157 -563 l6 -59 36 2 36 1 19 124 c14 95 35 177 91 345 68 203 149
395 166 395 9 0 20 -233 21 -440 0 -120 3 -149 11 -130 10 23 13 351 4 423 -6
47 11 39 23 -11 22 -97 31 -223 31 -447 0 -222 -1 -232 -26 -300 -14 -38 -43
-119 -64 -180 -21 -60 -41 -117 -44 -125 -5 -13 10 -15 109 -12 99 3 115 1
115 -12 0 -13 -15 -16 -91 -16 -79 0 -90 -2 -85 -16 3 -9 6 -29 6 -45 l0 -29
280 0 280 0 0 49 0 48 -75 6 c-85 6 -101 12 -85 33 14 16 25 123 16 157 -3 13
-21 47 -40 75 -50 71 -63 109 -86 240 -11 65 -27 149 -35 187 -48 231 -79 364
-92 395 -32 77 -95 266 -108 329 -7 36 -19 89 -25 116 -5 28 -20 97 -31 155
-11 58 -25 120 -31 139 -12 39 -16 100 -18 276 -2 171 -19 136 -30 -60 -6
-104 -13 -155 -29 -199 -12 -32 -21 -66 -19 -75 2 -9 14 17 26 57 13 39 26 72
29 72 10 0 -6 -153 -22 -205 -8 -27 -35 -99 -60 -160 -25 -60 -65 -166 -89
-235 -33 -94 -46 -120 -51 -105 -4 11 -22 54 -40 95 -18 41 -72 197 -120 345
-47 149 -90 281 -95 295 -33 91 -61 206 -57 229 3 14 17 58 31 96 28 77 36
182 14 190 -16 5 -402 11 -441 7z"/>
<path d="M807 3541 c-4 -18 -7 -50 -6 -70 l1 -36 9 40 c6 22 9 54 7 70 l-3 30
-8 -34z"/>
<path d="M360 2490 c0 -258 2 -310 14 -310 21 0 23 26 25 270 2 258 -4 350
-25 350 -12 0 -14 -53 -14 -310z"/>
<path d="M2395 2262 c-62 -35 -146 -94 -141 -99 3 -3 12 -1 19 5 7 7 45 23 83
37 63 24 94 46 94 67 0 12 -22 8 -55 -10z"/>
<path d="M1620 2167 c0 -8 39 -81 40 -74 0 12 -28 77 -34 77 -4 0 -6 -1 -6 -3z"/>
<path d="M1661 2064 c0 -11 3 -14 6 -6 3 7 2 16 -1 19 -3 4 -6 -2 -5 -13z"/>
<path d="M360 1824 c0 -64 3 -85 13 -82 13 5 22 106 12 145 -12 51 -25 19 -25
-63z"/>
<path d="M2940 1631 c0 -5 9 -13 20 -16 11 -3 20 -15 20 -26 0 -10 5 -19 10
-19 14 0 13 43 -2 58 -14 14 -48 16 -48 3z"/>
<path d="M933 1315 c0 -22 2 -30 4 -17 2 12 2 30 0 40 -3 9 -5 -1 -4 -23z"/>
<path d="M282 1118 l3 -53 324 -3 c253 -2 326 1 333 10 4 7 8 29 8 49 l0 36
-137 6 c-75 4 -226 7 -335 7 l-199 0 3 -52z"/>
<path d="M246 923 c-53 -55 -54 -58 -31 -61 l25 -3 0 -307 0 -307 -25 -40
c-47 -77 -56 -97 -51 -102 3 -3 39 12 81 33 l75 39 -5 200 c-3 110 -7 230 -9
268 -2 37 0 69 4 72 4 2 50 -98 102 -223 91 -218 96 -227 124 -230 33 -3 21
-25 149 283 37 88 71 165 77 170 7 7 8 -58 3 -195 l-6 -205 -30 -43 c-16 -23
-29 -45 -29 -49 0 -11 109 4 125 17 15 12 16 46 14 304 l-3 291 37 3 c20 2 37
6 37 10 0 10 -100 74 -118 76 -11 1 -49 -80 -131 -277 -64 -152 -119 -276
-124 -274 -5 1 -51 105 -103 231 -90 218 -94 232 -94 302 0 66 -2 74 -19 74
-10 0 -44 -26 -75 -57z"/>
<path d="M3267 803 c-4 -38 -7 -159 -7 -270 l0 -202 -32 -30 -33 -31 93 0 c50
0 92 3 92 8 0 4 -14 15 -30 24 l-30 17 0 127 0 126 39 39 c29 29 47 39 70 39
34 0 71 -15 83 -34 4 -6 8 -84 8 -173 l0 -163 28 0 29 0 6 98 c15 225 5 281
-57 307 -48 20 -95 19 -141 -5 -22 -11 -43 -20 -47 -20 -4 0 -8 47 -8 105 l0
105 -29 0 c-28 0 -28 -1 -34 -67z"/>
<path d="M1343 830 c-41 -16 -27 -35 24 -35 l48 0 3 -229 2 -230 -37 -38 -37
-38 114 0 114 0 -41 43 -41 42 1 75 c2 64 5 75 20 78 61 12 141 -35 155 -91 5
-21 27 -46 67 -77 54 -42 61 -52 78 -111 10 -35 23 -68 28 -74 18 -18 3 118
-16 155 -27 53 -57 90 -72 90 -7 0 -26 26 -41 57 -33 71 -89 112 -165 122
l-52 6 0 100 0 100 50 8 c77 13 133 1 172 -38 l33 -33 0 -144 c0 -141 1 -145
25 -168 42 -40 47 -20 43 168 -3 195 -8 209 -88 250 -41 20 -57 22 -205 21
-88 0 -170 -4 -182 -9z"/>
<path d="M3815 807 c-77 -36 -113 -115 -122 -266 -5 -91 -3 -118 11 -155 56
-147 266 -156 335 -14 18 38 21 62 21 164 0 143 -10 184 -58 236 -34 36 -43
40 -97 44 -39 3 -70 0 -90 -9z m132 -57 c42 -25 48 -50 48 -205 0 -110 -3
-135 -19 -161 -53 -88 -165 -83 -206 10 -15 33 -18 61 -16 136 4 118 18 160
53 160 l25 0 -23 19 -23 19 34 21 c44 26 86 27 127 1z"/>
<path d="M2002 623 c-37 -92 -54 -145 -77 -233 -8 -36 -25 -80 -36 -99 -11
-18 -19 -35 -17 -36 4 -4 95 -8 137 -6 l35 1 -26 27 c-20 21 -26 36 -23 63 1
19 3 44 4 56 2 36 25 54 84 68 65 15 71 12 81 -49 12 -77 10 -124 -7 -143 -10
-10 -14 -22 -10 -25 8 -9 71 -9 112 -1 l31 7 -20 32 c-12 20 -24 66 -30 114
-6 45 -24 114 -40 155 -17 41 -30 80 -30 88 0 7 -7 24 -16 36 -12 18 -25 22
-68 22 l-52 0 -32 -77z m108 -70 c11 -25 19 -47 18 -48 -9 -7 -98 -15 -98 -9
0 15 44 104 51 104 5 0 17 -21 29 -47z"/>
<path d="M2935 688 c-123 -43 -165 -251 -74 -361 49 -59 56 -46 30 58 -16 62
-13 153 6 192 23 49 67 75 119 70 59 -6 94 -32 94 -71 0 -25 5 -32 20 -33 17
-2 20 4 20 44 0 37 -5 50 -30 73 -42 39 -119 51 -185 28z"/>
<path d="M2574 659 c-2 -4 1 -9 6 -11 7 -2 10 -35 8 -86 l-3 -83 -78 91 c-75
86 -80 91 -115 88 -38 -3 -58 -28 -23 -28 20 0 21 -4 16 -102 -9 -171 -15
-211 -35 -245 l-19 -33 65 0 c59 0 65 2 59 17 -22 52 -4 223 24 223 10 0 65
-65 94 -112 20 -32 22 -99 5 -116 -9 -9 0 -12 40 -12 49 0 62 7 45 24 -8 8
-15 323 -7 348 3 9 14 18 25 20 11 2 20 8 19 13 0 11 -119 15 -126 4z"/>
<path d="M990 326 c-6 -8 -10 -25 -8 -38 2 -19 9 -23 38 -23 29 0 36 4 38 23
6 44 -41 70 -68 38z"/>
<path d="M3070 303 c0 -23 5 -33 15 -33 18 0 18 8 0 40 l-14 25 -1 -32z"/>
</g>
</svg>
